solid ascii
  facet normal 0.000000e+000 0.000000e+000 1.000000e+000
    outer loop
      vertex   -1.350000e+002 1.150000e+002 2.000000e+001
      vertex   -1.550000e+002 1.150000e+002 2.000000e+001
      vertex   -1.350000e+002 9.500000e+001 2.000000e+001
    endloop
  endfacet
  facet normal 0.000000e+000 0.000000e+000 1.000000e+000
    outer loop
      vertex   -1.350000e+002 9.500000e+001 2.000000e+001
      vertex   -1.550000e+002 1.150000e+002 2.000000e+001
      vertex   -1.550000e+002 9.500000e+001 2.000000e+001
    endloop
  endfacet
  facet normal 0.000000e+000 0.000000e+000 -1.000000e+000
    outer loop
      vertex   -1.350000e+002 9.500000e+001 0.000000e+000
      vertex   -1.550000e+002 9.500000e+001 0.000000e+000
      vertex   -1.350000e+002 1.150000e+002 0.000000e+000
    endloop
  endfacet
  facet normal -0.000000e+000 0.000000e+000 -1.000000e+000
    outer loop
      vertex   -1.350000e+002 1.150000e+002 0.000000e+000
      vertex   -1.550000e+002 9.500000e+001 0.000000e+000
      vertex   -1.550000e+002 1.150000e+002 0.000000e+000
    endloop
  endfacet
  facet normal 0.000000e+000 -1.000000e+000 0.000000e+000
    outer loop
      vertex   -1.550000e+002 9.500000e+001 2.000000e+001
      vertex   -1.550000e+002 9.500000e+001 0.000000e+000
      vertex   -1.350000e+002 9.500000e+001 2.000000e+001
    endloop
  endfacet
  facet normal 0.000000e+000 -1.000000e+000 -0.000000e+000
    outer loop
      vertex   -1.350000e+002 9.500000e+001 2.000000e+001
      vertex   -1.550000e+002 9.500000e+001 0.000000e+000
      vertex   -1.350000e+002 9.500000e+001 0.000000e+000
    endloop
  endfacet
  facet normal -1.000000e+000 -0.000000e+000 -0.000000e+000
    outer loop
      vertex   -1.550000e+002 1.150000e+002 2.000000e+001
      vertex   -1.550000e+002 1.150000e+002 0.000000e+000
      vertex   -1.550000e+002 9.500000e+001 2.000000e+001
    endloop
  endfacet
  facet normal -1.000000e+000 0.000000e+000 0.000000e+000
    outer loop
      vertex   -1.550000e+002 9.500000e+001 2.000000e+001
      vertex   -1.550000e+002 1.150000e+002 0.000000e+000
      vertex   -1.550000e+002 9.500000e+001 0.000000e+000
    endloop
  endfacet
  facet normal 0.000000e+000 1.000000e+000 0.000000e+000
    outer loop
      vertex   -1.350000e+002 1.150000e+002 2.000000e+001
      vertex   -1.350000e+002 1.150000e+002 0.000000e+000
      vertex   -1.550000e+002 1.150000e+002 2.000000e+001
    endloop
  endfacet
  facet normal 0.000000e+000 1.000000e+000 0.000000e+000
    outer loop
      vertex   -1.550000e+002 1.150000e+002 2.000000e+001
      vertex   -1.350000e+002 1.150000e+002 0.000000e+000
      vertex   -1.550000e+002 1.150000e+002 0.000000e+000
    endloop
  endfacet
  facet normal 1.000000e+000 -0.000000e+000 0.000000e+000
    outer loop
      vertex   -1.350000e+002 9.500000e+001 2.000000e+001
      vertex   -1.350000e+002 9.500000e+001 0.000000e+000
      vertex   -1.350000e+002 1.150000e+002 2.000000e+001
    endloop
  endfacet
  facet normal 1.000000e+000 0.000000e+000 0.000000e+000
    outer loop
      vertex   -1.350000e+002 1.150000e+002 2.000000e+001
      vertex   -1.350000e+002 9.500000e+001 0.000000e+000
      vertex   -1.350000e+002 1.150000e+002 0.000000e+000
    endloop
  endfacet
endsolid
